# xmcd
#
# Track frame offsets: 
#        182
#        17215
#        31327
#        55540
#        67780
#        81347
#        93135
#        108357
#        120952
#        134617
#        146112
#        159262
#        182892
#        194980
#
# Disc length: 2774 seconds
#
# Revision: 8
# Processed by: cddbd v1.5.2PL0 Copyright (c) Steve Scherf et al.
# Submitted via: ExactAudioCopyFreeDBPlugin 1.0
#
DISCID=bb0ad40e
DTITLE=Buddy Guy and Junior Wells - Buddy Guy and Junior Wells
DYEAR=1994
DGENRE=Blues
TTITLE0=Buddy Guy - We're Ready
TTITLE1=Buddy Guy - Sit And Cry (The Blues)
TTITLE2=Country Girl
TTITLE3=Buddy Guy - You Sure Can't Do
TTITLE4=Junior Wells - Junior's Wail
TTITLE5=Buddy Guy - Try To Quit You Baby
TTITLE6=Hoodoo Man
TTITLE7=Junior Wells - Lawdy! Lawdy!
TTITLE8=Buddy Guy - This Is The End
TTITLE9=Junior Wells - Cha Cha Cha In Blues
TTITLE10=Junior Wells - I Could Cry
TTITLE11=In My Younger Days
TTITLE12=Junior Wells - Little By Little
TTITLE13=Buddy Guy - We're Ready
EXTD=
EXTT0=
EXTT1=
EXTT2=
EXTT3=
EXTT4=
EXTT5=
EXTT6=
EXTT7=
EXTT8=
EXTT9=
EXTT10=
EXTT11=
EXTT12=
EXTT13=
PLAYORDER=
